<svg > <!-- C -->
    <symbol id="icon-c"
      width="19"
      height="21"
      viewBox="0 0 19 21"
      fill="none"
      xmlns="http://www.w3.org/2000/svg"
    >
      <path
        d="M10.575 20.9428C9.06831 20.9428 7.67318 20.6857 6.38967 20.1715C5.10615 19.6381 3.98075 18.9048 3.01347 17.9714C2.06479 17.0191 1.32072 15.9047 0.781269 14.6286C0.260423 13.3524 0 11.9714 0 10.4857C0 8.98096 0.260423 7.60001 0.781269 6.34286C1.32072 5.06667 2.06479 3.96191 3.01347 3.02857C3.98075 2.09524 5.09685 1.36191 6.36177 0.828573C7.64528 0.29524 9.0311 0.028574 10.5192 0.028574C12.0817 0.028574 13.4862 0.285717 14.7325 0.800002C15.9788 1.29524 17.0764 1.99048 18.025 2.88572L14.6767 6.31429C14.2116 5.78096 13.635 5.3619 12.9468 5.05714C12.2585 4.75238 11.4494 4.6 10.5192 4.6C9.7194 4.6 8.98459 4.73333 8.31493 5.00001C7.66388 5.26667 7.09653 5.66667 6.61289 6.2C6.12924 6.71428 5.74791 7.33333 5.46888 8.05715C5.20846 8.78095 5.07825 9.59051 5.07825 10.4857C5.07825 11.3809 5.20846 12.1905 5.46888 12.9143C5.74791 13.6381 6.12924 14.2666 6.61289 14.8C7.09653 15.3142 7.66388 15.7143 8.31493 16C8.98459 16.2667 9.7194 16.4 10.5192 16.4C11.4494 16.4 12.2678 16.2572 12.9747 15.9715C13.6815 15.6667 14.2861 15.2381 14.7883 14.6857L18.1367 18.1143C17.1693 19.0095 16.0719 19.7048 14.8441 20.2C13.635 20.6952 12.212 20.9428 10.575 20.9428Z"
        fill="black"
      />
    </symbol>
    <!-- A -->



    <symbol id="icon-a"
      width="21"
            height="21"
      viewBox="0 0 21 21"
      fill="none"
      xmlns="http://www.w3.org/2000/svg"
    >
      <path
        d="M0.354362 20.6286L8.02756 0.371429H12.8547L20.4441 20.6286H15.2264L9.50637 3.6H11.32L5.46056 20.6286H0.354362Z"
        fill="black"
      />
    </symbol>
    <!-- L -->
    <symbol id="icon-l" width="14" height="21" viewBox="0 0 14 21" fill="none" xmlns="http://www.w3.org/2000/svg">
    <path d="M0.296196 20.6286V0.371429H5.29072V20.6286H0.296196ZM4.25832 20.6286V16.2286H13.801V20.6286H4.25832Z" fill="black"/>
    </symbol>

    <!-- I -->
    <svg id="icon-i" width="6" height="21" viewBox="0 0 6 21" fill="none" xmlns="http://www.w3.org/2000/svg">
<path d="M0.127609 20.6286V0.371429H5.12214V20.6286H0.127609Z" fill="black"/>
</svg>


    <!-- F -->
    <symbol id="icon-f" width="15" height="21" viewBox="0 0 15 21" fill="none" xmlns="http://www.w3.org/2000/svg">
    <path d="M0.62912 20.6286V0.371429H5.62365V20.6286H0.62912ZM4.59125 13.0571V8.74286H14.385V13.0571H4.59125ZM4.59125 4.68571V0.371429H14.8314V4.68571H4.59125Z" fill="black"/>
    </symbol>

    <!-- O -->
    <symbol  id="icon-o" width="22" height="21" viewBox="0 0 22 21" fill="none" xmlns="http://www.w3.org/2000/svg">
    <path d="M10.8498 21C9.32449 21 7.92006 20.7333 6.63651 20.2C5.35306 19.6667 4.22758 18.9238 3.26036 17.9714C2.31165 17.0191 1.5676 15.9047 1.02811 14.6286C0.488713 13.3334 0.218964 11.9429 0.218964 10.4571C0.218964 8.97143 0.479413 7.6 1.00021 6.34286C1.53971 5.06667 2.28376 3.95238 3.23248 3C4.18109 2.04761 5.29727 1.31428 6.58072 0.800002C7.86427 0.266667 9.26869 0 10.794 0C12.3194 0 13.7238 0.266667 15.0075 0.800002C16.2904 1.31428 17.4072 2.04761 18.3558 3C19.3044 3.95238 20.0389 5.06667 20.5602 6.34286C21.0993 7.61905 21.3688 9 21.3688 10.4857C21.3688 11.9714 21.0993 13.3524 20.5602 14.6286C20.0389 15.9047 19.3044 17.0286 18.3558 18C17.4072 18.9524 16.2904 19.6952 15.0075 20.2285C13.7424 20.7428 12.3566 21 10.8498 21ZM10.794 16.4286C11.9101 16.4286 12.8774 16.181 13.6959 15.6858C14.5144 15.1904 15.1465 14.4952 15.5935 13.6C16.0397 12.7048 16.2632 11.6571 16.2632 10.4571C16.2632 9.58096 16.1327 8.78095 15.8725 8.05715C15.6302 7.33333 15.2676 6.71428 14.7839 6.2C14.3002 5.66667 13.7237 5.25714 13.0542 4.97143C12.3845 4.68571 11.6311 4.54286 10.794 4.54286C9.67791 4.54286 8.71061 4.79048 7.89216 5.28572C7.07372 5.7619 6.44124 6.44762 5.99483 7.34286C5.54832 8.2381 5.32516 9.2762 5.32516 10.4571C5.32516 11.3714 5.44604 12.2 5.68789 12.9429C5.94825 13.6667 6.32027 14.2953 6.80398 14.8286C7.28758 15.3429 7.86427 15.7428 8.53394 16.0285C9.20361 16.2952 9.95696 16.4286 10.794 16.4286Z" fill="black"/>
    </symbol>

    <!-- R -->
    <symbol  id="icon-r" width="18" height="21" viewBox="0 0 18 21" fill="none" xmlns="http://www.w3.org/2000/svg">
    <path d="M4.82885 12.4286V8.77143H8.59609C9.41415 8.77143 10.0378 8.57143 10.4651 8.17143C10.9122 7.75238 11.1348 7.19048 11.1348 6.48572C11.1348 5.8 10.9122 5.24762 10.4651 4.82857C10.0378 4.39048 9.41415 4.17143 8.59609 4.17143H4.82885V0.371429H9.29393C10.6333 0.371429 11.8045 0.628573 12.8095 1.14286C13.8323 1.65715 14.6325 2.36191 15.2092 3.25715C15.7859 4.15238 16.0742 5.2 16.0742 6.4C16.0742 7.6 15.7765 8.65714 15.181 9.57142C14.6043 10.4667 13.7947 11.1714 12.7531 11.6857C11.7115 12.181 10.4933 12.4286 9.09857 12.4286H4.82885ZM0.867188 20.6286V0.371429H5.86199V20.6286H0.867188ZM11.5819 20.6286L5.83382 11.9429L10.3261 10.8286L17.3572 20.6286H11.5819Z" fill="black"/>
    </symbol>

    <!-- N -->
    <symbol  id="icon-n" width="19" height="21" viewBox="0 0 19 21" fill="none" xmlns="http://www.w3.org/2000/svg">
    <path d="M0.987671 20.6286V0.371429H4.47502L5.98154 4.51428V20.6286H0.987671ZM14.6318 20.6286L3.08026 5.6L4.47502 0.371429L16.0547 15.4L14.6318 20.6286ZM14.6318 20.6286L13.3479 16.3714V0.371429H18.3427V20.6286H14.6318Z" fill="black"/>
    </symbol>

    <!-- I -->


    <!-- A -->
 

</svg>